<svg width="360" height="800" viewBox="0 0 360 800" fill="none" xmlns="http://www.w3.org/2000/svg">
<g clip-path="url(#clip0_108_2)">
<rect width="360" height="800" rx="30" fill="#000113"/>
<path fill-rule="evenodd" clip-rule="evenodd" d="M360 -158H0V370.367L80.7756 356.934L110.489 338.579L103.868 318.719L111.438 290.716L91 297.527L115.222 242.279L96.2986 250.604L123.549 209.735L148.528 196.112L159.125 156L193.188 192.328L228.764 206.708L246.931 223.358L309 236.981L289.319 274.822C276.451 276.841 249.958 281.634 246.931 284.661L237.847 298.284L247.282 337.365L279 357L360 370.5V-158ZM224.222 218.817C223.011 216.395 209.083 213.771 202.271 212.762C208.932 227.899 222.708 229.16 228.764 227.899L224.222 218.817ZM182.59 158.27L208.326 195.355L194.701 190.057L176.535 170.38L182.59 158.27Z" fill="url(#paint0_linear_108_2)"/>
<path d="M124.28 101C124.104 101 123.96 100.944 123.848 100.832C123.736 100.72 123.68 100.576 123.68 100.4V84.8C123.68 84.624 123.736 84.48 123.848 84.368C123.96 84.256 124.104 84.2 124.28 84.2H127.448C127.608 84.2 127.744 84.256 127.856 84.368C127.984 84.48 128.048 84.624 128.048 84.8V97.376H135.296C135.472 97.376 135.616 97.44 135.728 97.568C135.856 97.68 135.92 97.824 135.92 98V100.4C135.92 100.576 135.856 100.72 135.728 100.832C135.616 100.944 135.472 101 135.296 101H124.28ZM142.156 101.24C141.244 101.24 140.428 101.032 139.708 100.616C139.004 100.2 138.452 99.592 138.052 98.792C137.652 97.976 137.452 96.984 137.452 95.816V89.12C137.452 88.944 137.508 88.8 137.62 88.688C137.732 88.576 137.876 88.52 138.052 88.52H141.052C141.228 88.52 141.372 88.576 141.484 88.688C141.596 88.8 141.652 88.944 141.652 89.12V95.672C141.652 97.24 142.356 98.024 143.764 98.024C144.42 98.024 144.94 97.824 145.324 97.424C145.724 97.008 145.924 96.424 145.924 95.672V89.12C145.924 88.944 145.98 88.8 146.092 88.688C146.204 88.576 146.348 88.52 146.524 88.52H149.524C149.7 88.52 149.844 88.576 149.956 88.688C150.068 88.8 150.124 88.944 150.124 89.12V100.4C150.124 100.576 150.068 100.72 149.956 100.832C149.844 100.944 149.7 101 149.524 101H146.74C146.58 101 146.436 100.944 146.308 100.832C146.196 100.72 146.14 100.576 146.14 100.4V99.488C145.724 100.064 145.18 100.504 144.508 100.808C143.852 101.096 143.068 101.24 142.156 101.24ZM153.547 105.56C153.371 105.56 153.227 105.504 153.115 105.392C153.003 105.28 152.947 105.136 152.947 104.96V89.12C152.947 88.944 153.003 88.8 153.115 88.688C153.227 88.576 153.371 88.52 153.547 88.52H156.259C156.419 88.52 156.555 88.576 156.667 88.688C156.795 88.8 156.859 88.944 156.859 89.12V90.008C157.227 89.512 157.715 89.104 158.323 88.784C158.931 88.448 159.683 88.28 160.579 88.28C161.379 88.28 162.083 88.408 162.691 88.664C163.299 88.904 163.819 89.264 164.251 89.744C164.683 90.224 165.019 90.808 165.259 91.496C165.515 92.184 165.659 92.976 165.691 93.872C165.707 94.192 165.715 94.488 165.715 94.76C165.715 95.032 165.707 95.328 165.691 95.648C165.659 96.512 165.523 97.288 165.283 97.976C165.043 98.664 164.707 99.248 164.275 99.728C163.843 100.208 163.315 100.584 162.691 100.856C162.083 101.112 161.379 101.24 160.579 101.24C159.795 101.24 159.107 101.104 158.515 100.832C157.939 100.544 157.459 100.144 157.075 99.632V104.96C157.075 105.136 157.019 105.28 156.907 105.392C156.795 105.504 156.651 105.56 156.475 105.56H153.547ZM159.283 98.024C159.827 98.024 160.251 97.912 160.555 97.688C160.859 97.464 161.075 97.16 161.203 96.776C161.347 96.392 161.435 95.968 161.467 95.504C161.499 95.008 161.499 94.512 161.467 94.016C161.435 93.552 161.347 93.128 161.203 92.744C161.075 92.36 160.859 92.056 160.555 91.832C160.251 91.608 159.827 91.496 159.283 91.496C158.755 91.496 158.331 91.616 158.011 91.856C157.691 92.08 157.459 92.376 157.315 92.744C157.171 93.112 157.091 93.512 157.075 93.944C157.059 94.248 157.051 94.544 157.051 94.832C157.051 95.12 157.059 95.424 157.075 95.744C157.091 96.144 157.179 96.52 157.339 96.872C157.499 97.208 157.739 97.488 158.059 97.712C158.379 97.92 158.787 98.024 159.283 98.024ZM172.672 101.24C171.76 101.24 170.944 101.032 170.224 100.616C169.52 100.2 168.968 99.592 168.568 98.792C168.168 97.976 167.968 96.984 167.968 95.816V89.12C167.968 88.944 168.024 88.8 168.136 88.688C168.248 88.576 168.392 88.52 168.568 88.52H171.568C171.744 88.52 171.888 88.576 172 88.688C172.112 88.8 172.168 88.944 172.168 89.12V95.672C172.168 97.24 172.872 98.024 174.28 98.024C174.936 98.024 175.456 97.824 175.84 97.424C176.24 97.008 176.44 96.424 176.44 95.672V89.12C176.44 88.944 176.496 88.8 176.608 88.688C176.72 88.576 176.864 88.52 177.04 88.52H180.04C180.216 88.52 180.36 88.576 180.472 88.688C180.584 88.8 180.64 88.944 180.64 89.12V100.4C180.64 100.576 180.584 100.72 180.472 100.832C180.36 100.944 180.216 101 180.04 101H177.256C177.096 101 176.952 100.944 176.824 100.832C176.712 100.72 176.656 100.576 176.656 100.4V99.488C176.24 100.064 175.696 100.504 175.024 100.808C174.368 101.096 173.584 101.24 172.672 101.24ZM188.599 101.24C187.559 101.24 186.671 101.128 185.935 100.904C185.215 100.664 184.623 100.376 184.159 100.04C183.711 99.704 183.375 99.36 183.151 99.008C182.927 98.64 182.807 98.328 182.791 98.072C182.775 97.896 182.831 97.752 182.959 97.64C183.087 97.512 183.223 97.448 183.367 97.448H186.103C186.151 97.448 186.191 97.456 186.223 97.472C186.255 97.488 186.303 97.52 186.367 97.568C186.575 97.68 186.783 97.824 186.991 98C187.199 98.16 187.439 98.304 187.711 98.432C187.983 98.56 188.311 98.624 188.695 98.624C189.143 98.624 189.519 98.536 189.823 98.36C190.127 98.184 190.279 97.92 190.279 97.568C190.279 97.312 190.207 97.104 190.063 96.944C189.919 96.768 189.623 96.6 189.175 96.44C188.743 96.28 188.087 96.12 187.207 95.96C186.375 95.768 185.647 95.52 185.023 95.216C184.399 94.896 183.919 94.488 183.583 93.992C183.247 93.48 183.079 92.864 183.079 92.144C183.079 91.504 183.287 90.888 183.703 90.296C184.119 89.704 184.727 89.224 185.527 88.856C186.327 88.472 187.311 88.28 188.479 88.28C189.407 88.28 190.207 88.392 190.879 88.616C191.567 88.824 192.143 89.096 192.607 89.432C193.087 89.768 193.447 90.112 193.687 90.464C193.927 90.816 194.055 91.136 194.071 91.424C194.087 91.584 194.039 91.728 193.927 91.856C193.815 91.968 193.687 92.024 193.543 92.024H191.047C190.983 92.024 190.919 92.016 190.855 92C190.791 91.968 190.735 91.936 190.687 91.904C190.495 91.808 190.303 91.68 190.111 91.52C189.919 91.36 189.695 91.216 189.439 91.088C189.183 90.96 188.863 90.896 188.479 90.896C188.047 90.896 187.711 90.992 187.471 91.184C187.231 91.376 187.111 91.624 187.111 91.928C187.111 92.136 187.175 92.328 187.303 92.504C187.447 92.68 187.727 92.84 188.143 92.984C188.575 93.128 189.239 93.288 190.135 93.464C191.239 93.64 192.119 93.928 192.775 94.328C193.431 94.712 193.895 95.168 194.167 95.696C194.439 96.208 194.575 96.752 194.575 97.328C194.575 98.096 194.343 98.776 193.879 99.368C193.431 99.96 192.759 100.424 191.863 100.76C190.967 101.08 189.879 101.24 188.599 101.24ZM197.209 101C197.033 101 196.889 100.944 196.777 100.832C196.665 100.72 196.609 100.576 196.609 100.4V97.352C196.609 97.192 196.665 97.056 196.777 96.944C196.889 96.816 197.033 96.752 197.209 96.752H200.233C200.409 96.752 200.553 96.816 200.665 96.944C200.793 97.056 200.857 97.192 200.857 97.352V100.4C200.857 100.576 200.793 100.72 200.665 100.832C200.553 100.944 200.409 101 200.233 101H197.209ZM207.293 101.24C206.429 101.24 205.653 101.08 204.965 100.76C204.293 100.424 203.757 99.976 203.357 99.416C202.957 98.856 202.757 98.224 202.757 97.52C202.757 96.384 203.221 95.488 204.149 94.832C205.077 94.16 206.309 93.704 207.845 93.464L210.845 93.008V92.672C210.845 92.096 210.725 91.656 210.485 91.352C210.245 91.048 209.805 90.896 209.165 90.896C208.717 90.896 208.349 90.984 208.061 91.16C207.789 91.336 207.573 91.576 207.413 91.88C207.269 92.088 207.069 92.192 206.813 92.192H204.125C203.949 92.192 203.813 92.144 203.717 92.048C203.621 91.936 203.581 91.808 203.597 91.664C203.597 91.376 203.701 91.048 203.909 90.68C204.133 90.296 204.469 89.92 204.917 89.552C205.365 89.184 205.941 88.88 206.645 88.64C207.349 88.4 208.197 88.28 209.189 88.28C210.229 88.28 211.117 88.4 211.853 88.64C212.589 88.88 213.181 89.216 213.629 89.648C214.093 90.08 214.437 90.592 214.661 91.184C214.885 91.76 214.997 92.4 214.997 93.104V100.4C214.997 100.576 214.933 100.72 214.805 100.832C214.693 100.944 214.557 101 214.397 101H211.613C211.437 101 211.293 100.944 211.181 100.832C211.069 100.72 211.013 100.576 211.013 100.4V99.56C210.805 99.864 210.525 100.144 210.173 100.4C209.821 100.656 209.405 100.856 208.925 101C208.461 101.16 207.917 101.24 207.293 101.24ZM208.421 98.504C208.885 98.504 209.301 98.408 209.669 98.216C210.053 98.008 210.349 97.696 210.557 97.28C210.781 96.848 210.893 96.312 210.893 95.672V95.336L208.853 95.696C208.101 95.824 207.549 96.024 207.197 96.296C206.861 96.552 206.693 96.856 206.693 97.208C206.693 97.48 206.773 97.712 206.933 97.904C207.093 98.096 207.301 98.248 207.557 98.36C207.813 98.456 208.101 98.504 208.421 98.504ZM218.305 101C218.129 101 217.985 100.944 217.873 100.832C217.761 100.72 217.705 100.576 217.705 100.4V89.12C217.705 88.944 217.761 88.8 217.873 88.688C217.985 88.576 218.129 88.52 218.305 88.52H221.137C221.297 88.52 221.433 88.576 221.545 88.688C221.673 88.8 221.737 88.944 221.737 89.12V100.4C221.737 100.576 221.673 100.72 221.545 100.832C221.433 100.944 221.297 101 221.137 101H218.305ZM218.281 86.72C218.105 86.72 217.961 86.664 217.849 86.552C217.737 86.44 217.681 86.296 217.681 86.12V83.984C217.681 83.808 217.737 83.664 217.849 83.552C217.961 83.424 218.105 83.36 218.281 83.36H221.137C221.313 83.36 221.457 83.424 221.569 83.552C221.697 83.664 221.761 83.808 221.761 83.984V86.12C221.761 86.296 221.697 86.44 221.569 86.552C221.457 86.664 221.313 86.72 221.137 86.72H218.281Z" fill="white"/>
<path d="M128.672 110.493C128.619 110.022 128.4 109.658 128.016 109.399C127.631 109.137 127.147 109.006 126.564 109.006C126.146 109.006 125.785 109.073 125.48 109.205C125.175 109.335 124.938 109.513 124.769 109.742C124.603 109.968 124.521 110.224 124.521 110.513C124.521 110.755 124.577 110.964 124.69 111.139C124.806 111.315 124.956 111.462 125.142 111.582C125.331 111.698 125.533 111.795 125.749 111.875C125.964 111.951 126.171 112.014 126.37 112.064L127.364 112.322C127.689 112.402 128.022 112.51 128.364 112.646C128.705 112.781 129.022 112.96 129.313 113.183C129.605 113.405 129.84 113.68 130.019 114.008C130.201 114.336 130.293 114.729 130.293 115.186C130.293 115.763 130.143 116.275 129.845 116.722C129.55 117.17 129.121 117.523 128.558 117.781C127.997 118.04 127.32 118.169 126.524 118.169C125.762 118.169 125.102 118.048 124.545 117.806C123.989 117.564 123.553 117.221 123.238 116.777C122.923 116.33 122.749 115.799 122.716 115.186H124.257C124.287 115.554 124.406 115.861 124.615 116.106C124.827 116.348 125.097 116.528 125.425 116.648C125.757 116.764 126.12 116.822 126.514 116.822C126.948 116.822 127.335 116.754 127.673 116.618C128.014 116.479 128.282 116.286 128.478 116.041C128.674 115.793 128.771 115.503 128.771 115.171C128.771 114.87 128.685 114.623 128.513 114.43C128.344 114.238 128.113 114.079 127.822 113.953C127.533 113.827 127.207 113.716 126.842 113.62L125.639 113.292C124.824 113.07 124.178 112.743 123.7 112.312C123.226 111.882 122.989 111.312 122.989 110.602C122.989 110.016 123.148 109.504 123.467 109.066C123.785 108.629 124.216 108.289 124.759 108.047C125.303 107.802 125.916 107.679 126.599 107.679C127.288 107.679 127.896 107.8 128.423 108.042C128.954 108.284 129.371 108.617 129.676 109.041C129.981 109.462 130.14 109.946 130.153 110.493H128.672ZM133.496 113.466V118H132.009V107.818H133.476V111.607H133.57C133.749 111.196 134.023 110.869 134.39 110.627C134.758 110.385 135.239 110.264 135.832 110.264C136.356 110.264 136.813 110.372 137.204 110.587C137.599 110.803 137.904 111.124 138.119 111.552C138.338 111.976 138.447 112.506 138.447 113.143V118H136.961V113.322C136.961 112.762 136.817 112.327 136.528 112.019C136.24 111.708 135.839 111.552 135.325 111.552C134.974 111.552 134.659 111.626 134.381 111.776C134.105 111.925 133.888 112.143 133.729 112.432C133.573 112.717 133.496 113.062 133.496 113.466ZM140.431 118V110.364H141.917V118H140.431ZM141.182 109.185C140.923 109.185 140.701 109.099 140.515 108.927C140.333 108.751 140.242 108.542 140.242 108.3C140.242 108.055 140.333 107.846 140.515 107.674C140.701 107.498 140.923 107.411 141.182 107.411C141.44 107.411 141.661 107.498 141.843 107.674C142.028 107.846 142.121 108.055 142.121 108.3C142.121 108.542 142.028 108.751 141.843 108.927C141.661 109.099 141.44 109.185 141.182 109.185ZM147.208 118.154C146.456 118.154 145.808 117.993 145.265 117.672C144.724 117.347 144.307 116.891 144.012 116.305C143.72 115.715 143.574 115.024 143.574 114.232C143.574 113.449 143.72 112.76 144.012 112.163C144.307 111.567 144.718 111.101 145.245 110.766C145.775 110.432 146.395 110.264 147.104 110.264C147.535 110.264 147.953 110.335 148.357 110.478C148.761 110.621 149.124 110.844 149.446 111.149C149.767 111.454 150.021 111.85 150.206 112.337C150.392 112.821 150.485 113.41 150.485 114.102V114.629H144.414V113.516H149.028C149.028 113.125 148.949 112.778 148.789 112.477C148.63 112.172 148.407 111.931 148.118 111.756C147.833 111.58 147.498 111.492 147.114 111.492C146.696 111.492 146.332 111.595 146.02 111.8C145.712 112.003 145.473 112.268 145.304 112.596C145.139 112.921 145.056 113.274 145.056 113.655V114.525C145.056 115.035 145.145 115.469 145.324 115.827C145.507 116.185 145.76 116.459 146.085 116.648C146.41 116.833 146.789 116.926 147.223 116.926C147.505 116.926 147.762 116.886 147.994 116.807C148.226 116.724 148.426 116.601 148.596 116.439C148.765 116.277 148.894 116.076 148.983 115.837L150.39 116.091C150.278 116.505 150.075 116.868 149.784 117.18C149.495 117.488 149.132 117.728 148.695 117.901C148.261 118.07 147.765 118.154 147.208 118.154ZM153.621 107.818V118H152.134V107.818H153.621ZM158.479 118.149C157.863 118.149 157.312 117.992 156.828 117.677C156.348 117.359 155.97 116.906 155.695 116.32C155.423 115.73 155.287 115.022 155.287 114.197C155.287 113.371 155.425 112.665 155.7 112.079C155.978 111.492 156.359 111.043 156.843 110.732C157.327 110.42 157.876 110.264 158.489 110.264C158.963 110.264 159.344 110.344 159.632 110.503C159.924 110.659 160.15 110.841 160.309 111.05C160.471 111.259 160.597 111.442 160.686 111.602H160.776V107.818H162.262V118H160.811V116.812H160.686C160.597 116.974 160.468 117.16 160.299 117.369C160.133 117.577 159.904 117.76 159.613 117.915C159.321 118.071 158.943 118.149 158.479 118.149ZM158.807 116.881C159.235 116.881 159.596 116.769 159.891 116.543C160.189 116.315 160.415 115.998 160.567 115.594C160.723 115.189 160.801 114.719 160.801 114.182C160.801 113.652 160.725 113.187 160.572 112.79C160.42 112.392 160.196 112.082 159.901 111.86C159.606 111.638 159.241 111.527 158.807 111.527C158.36 111.527 157.987 111.643 157.689 111.875C157.39 112.107 157.165 112.424 157.012 112.825C156.863 113.226 156.789 113.678 156.789 114.182C156.789 114.692 156.865 115.151 157.017 115.559C157.17 115.967 157.395 116.29 157.694 116.528C157.995 116.764 158.366 116.881 158.807 116.881ZM164.384 118V110.364H165.871V118H164.384ZM165.135 109.185C164.876 109.185 164.654 109.099 164.469 108.927C164.286 108.751 164.195 108.542 164.195 108.3C164.195 108.055 164.286 107.846 164.469 107.674C164.654 107.498 164.876 107.411 165.135 107.411C165.393 107.411 165.614 107.498 165.796 107.674C165.982 107.846 166.074 108.055 166.074 108.3C166.074 108.542 165.982 108.751 165.796 108.927C165.614 109.099 165.393 109.185 165.135 109.185ZM169.357 113.466V118H167.87V110.364H169.297V111.607H169.392C169.567 111.202 169.842 110.877 170.217 110.632C170.595 110.387 171.07 110.264 171.644 110.264C172.164 110.264 172.62 110.374 173.011 110.592C173.402 110.808 173.705 111.129 173.921 111.557C174.136 111.984 174.244 112.513 174.244 113.143V118H172.757V113.322C172.757 112.768 172.613 112.336 172.325 112.024C172.037 111.709 171.641 111.552 171.137 111.552C170.792 111.552 170.485 111.626 170.217 111.776C169.952 111.925 169.741 112.143 169.586 112.432C169.433 112.717 169.357 113.062 169.357 113.466ZM179.439 121.023C178.833 121.023 178.311 120.943 177.873 120.784C177.439 120.625 177.084 120.415 176.809 120.153C176.534 119.891 176.329 119.604 176.193 119.293L177.471 118.766C177.56 118.911 177.679 119.066 177.828 119.228C177.981 119.394 178.186 119.535 178.445 119.651C178.707 119.767 179.043 119.825 179.454 119.825C180.018 119.825 180.483 119.687 180.851 119.412C181.219 119.14 181.403 118.706 181.403 118.109V116.608H181.309C181.219 116.77 181.09 116.951 180.921 117.15C180.755 117.349 180.526 117.521 180.235 117.667C179.943 117.813 179.564 117.886 179.096 117.886C178.493 117.886 177.949 117.745 177.466 117.463C176.985 117.178 176.604 116.759 176.322 116.205C176.044 115.648 175.904 114.964 175.904 114.152C175.904 113.34 176.042 112.644 176.317 112.064C176.596 111.484 176.977 111.04 177.461 110.732C177.944 110.42 178.493 110.264 179.106 110.264C179.58 110.264 179.963 110.344 180.255 110.503C180.546 110.659 180.773 110.841 180.936 111.05C181.101 111.259 181.229 111.442 181.319 111.602H181.428V110.364H182.885V118.169C182.885 118.825 182.732 119.364 182.427 119.785C182.122 120.206 181.71 120.517 181.189 120.719C180.672 120.922 180.089 121.023 179.439 121.023ZM179.424 116.653C179.852 116.653 180.213 116.553 180.508 116.354C180.806 116.152 181.032 115.864 181.184 115.489C181.34 115.112 181.418 114.659 181.418 114.132C181.418 113.618 181.342 113.166 181.189 112.775C181.037 112.384 180.813 112.079 180.518 111.86C180.223 111.638 179.859 111.527 179.424 111.527C178.977 111.527 178.604 111.643 178.306 111.875C178.007 112.104 177.782 112.415 177.63 112.81C177.48 113.204 177.406 113.645 177.406 114.132C177.406 114.633 177.482 115.072 177.635 115.45C177.787 115.827 178.012 116.122 178.311 116.335C178.612 116.547 178.984 116.653 179.424 116.653ZM189.523 120.864C189.301 120.864 189.099 120.845 188.916 120.809C188.734 120.776 188.598 120.739 188.509 120.7L188.867 119.482C189.138 119.554 189.38 119.586 189.593 119.576C189.805 119.566 189.992 119.487 190.154 119.337C190.32 119.188 190.466 118.945 190.592 118.607L190.776 118.099L187.982 110.364H189.573L191.507 116.29H191.586L193.52 110.364H195.116L191.969 119.019C191.823 119.417 191.637 119.753 191.412 120.028C191.187 120.307 190.918 120.516 190.607 120.655C190.295 120.794 189.934 120.864 189.523 120.864ZM199.47 118.154C198.754 118.154 198.129 117.99 197.596 117.662C197.062 117.334 196.648 116.875 196.353 116.285C196.058 115.695 195.91 115.005 195.91 114.217C195.91 113.424 196.058 112.732 196.353 112.138C196.648 111.545 197.062 111.085 197.596 110.756C198.129 110.428 198.754 110.264 199.47 110.264C200.186 110.264 200.81 110.428 201.344 110.756C201.878 111.085 202.292 111.545 202.587 112.138C202.882 112.732 203.029 113.424 203.029 114.217C203.029 115.005 202.882 115.695 202.587 116.285C202.292 116.875 201.878 117.334 201.344 117.662C200.81 117.99 200.186 118.154 199.47 118.154ZM199.475 116.906C199.939 116.906 200.323 116.784 200.628 116.538C200.933 116.293 201.158 115.967 201.304 115.559C201.453 115.151 201.528 114.702 201.528 114.212C201.528 113.724 201.453 113.277 201.304 112.869C201.158 112.458 200.933 112.129 200.628 111.88C200.323 111.631 199.939 111.507 199.475 111.507C199.007 111.507 198.62 111.631 198.311 111.88C198.007 112.129 197.779 112.458 197.63 112.869C197.484 113.277 197.412 113.724 197.412 114.212C197.412 114.702 197.484 115.151 197.63 115.559C197.779 115.967 198.007 116.293 198.311 116.538C198.62 116.784 199.007 116.906 199.475 116.906ZM209.526 114.833V110.364H211.018V118H209.556V116.678H209.476C209.301 117.085 209.019 117.425 208.631 117.697C208.247 117.965 207.768 118.099 207.194 118.099C206.704 118.099 206.27 117.992 205.892 117.776C205.517 117.558 205.222 117.234 205.007 116.807C204.795 116.379 204.689 115.851 204.689 115.221V110.364H206.175V115.042C206.175 115.562 206.319 115.977 206.608 116.285C206.896 116.593 207.271 116.747 207.731 116.747C208.01 116.747 208.287 116.678 208.562 116.538C208.84 116.399 209.07 116.189 209.253 115.907C209.438 115.625 209.529 115.267 209.526 114.833ZM213.015 118V110.364H214.452V111.577H214.531C214.67 111.166 214.916 110.843 215.267 110.607C215.622 110.369 216.023 110.249 216.47 110.249C216.563 110.249 216.672 110.253 216.798 110.259C216.928 110.266 217.029 110.274 217.102 110.284V111.706C217.042 111.689 216.936 111.671 216.783 111.651C216.631 111.628 216.478 111.616 216.326 111.616C215.975 111.616 215.661 111.691 215.386 111.84C215.115 111.986 214.899 112.19 214.74 112.452C214.581 112.71 214.501 113.005 214.501 113.337V118H213.015ZM222.212 118V107.818H228.526V109.141H223.749V112.243H228.074V113.56H223.749V118H222.212ZM230.296 118V110.364H231.783V118H230.296ZM231.047 109.185C230.788 109.185 230.566 109.099 230.381 108.927C230.198 108.751 230.107 108.542 230.107 108.3C230.107 108.055 230.198 107.846 230.381 107.674C230.566 107.498 230.788 107.411 231.047 107.411C231.305 107.411 231.526 107.498 231.708 107.674C231.894 107.846 231.987 108.055 231.987 108.3C231.987 108.542 231.894 108.751 231.708 108.927C231.526 109.099 231.305 109.185 231.047 109.185ZM235.269 113.466V118H233.782V110.364H235.209V111.607H235.304C235.479 111.202 235.755 110.877 236.129 110.632C236.507 110.387 236.983 110.264 237.556 110.264C238.076 110.264 238.532 110.374 238.923 110.592C239.314 110.808 239.617 111.129 239.833 111.557C240.048 111.984 240.156 112.513 240.156 113.143V118H238.67V113.322C238.67 112.768 238.525 112.336 238.237 112.024C237.949 111.709 237.553 111.552 237.049 111.552C236.704 111.552 236.398 111.626 236.129 111.776C235.864 111.925 235.653 112.143 235.498 112.432C235.345 112.717 235.269 113.062 235.269 113.466ZM244.372 118.169C243.888 118.169 243.451 118.08 243.059 117.901C242.668 117.718 242.358 117.455 242.13 117.11C241.904 116.765 241.792 116.343 241.792 115.842C241.792 115.411 241.875 115.057 242.04 114.778C242.206 114.5 242.43 114.28 242.711 114.117C242.993 113.955 243.308 113.832 243.656 113.749C244.004 113.666 244.359 113.603 244.72 113.56C245.177 113.507 245.549 113.464 245.834 113.431C246.119 113.395 246.326 113.337 246.455 113.257C246.584 113.178 246.649 113.048 246.649 112.869V112.835C246.649 112.4 246.526 112.064 246.281 111.825C246.039 111.587 245.678 111.467 245.197 111.467C244.697 111.467 244.302 111.578 244.014 111.8C243.729 112.019 243.532 112.263 243.422 112.531L242.025 112.213C242.191 111.749 242.433 111.375 242.751 111.089C243.073 110.801 243.442 110.592 243.86 110.463C244.278 110.33 244.717 110.264 245.177 110.264C245.482 110.264 245.805 110.301 246.147 110.374C246.492 110.443 246.813 110.572 247.111 110.761C247.413 110.95 247.66 111.22 247.852 111.572C248.044 111.92 248.14 112.372 248.14 112.929V118H246.689V116.956H246.629C246.533 117.148 246.389 117.337 246.197 117.523C246.004 117.708 245.757 117.862 245.456 117.985C245.154 118.108 244.793 118.169 244.372 118.169ZM244.695 116.976C245.106 116.976 245.457 116.895 245.749 116.732C246.044 116.57 246.268 116.358 246.42 116.096C246.576 115.831 246.654 115.547 246.654 115.246V114.261C246.601 114.314 246.498 114.364 246.346 114.411C246.197 114.454 246.026 114.492 245.834 114.525C245.641 114.555 245.454 114.583 245.272 114.609C245.09 114.633 244.937 114.652 244.814 114.669C244.526 114.705 244.263 114.767 244.024 114.853C243.789 114.939 243.6 115.063 243.457 115.226C243.318 115.385 243.248 115.597 243.248 115.862C243.248 116.23 243.384 116.509 243.656 116.697C243.928 116.883 244.274 116.976 244.695 116.976ZM251.607 113.466V118H250.12V110.364H251.547V111.607H251.642C251.817 111.202 252.092 110.877 252.467 110.632C252.845 110.387 253.32 110.264 253.894 110.264C254.414 110.264 254.87 110.374 255.261 110.592C255.652 110.808 255.955 111.129 256.171 111.557C256.386 111.984 256.494 112.513 256.494 113.143V118H255.007V113.322C255.007 112.768 254.863 112.336 254.575 112.024C254.287 111.709 253.891 111.552 253.387 111.552C253.042 111.552 252.735 111.626 252.467 111.776C252.202 111.925 251.991 112.143 251.836 112.432C251.683 112.717 251.607 113.062 251.607 113.466ZM261.704 118.154C260.965 118.154 260.329 117.987 259.795 117.652C259.265 117.314 258.857 116.848 258.572 116.255C258.287 115.662 258.145 114.982 258.145 114.217C258.145 113.441 258.29 112.757 258.582 112.163C258.874 111.567 259.285 111.101 259.815 110.766C260.345 110.432 260.97 110.264 261.689 110.264C262.269 110.264 262.786 110.372 263.24 110.587C263.694 110.799 264.061 111.098 264.339 111.482C264.621 111.867 264.788 112.316 264.841 112.83H263.395C263.315 112.472 263.133 112.163 262.848 111.905C262.566 111.646 262.188 111.517 261.714 111.517C261.3 111.517 260.937 111.626 260.625 111.845C260.317 112.061 260.077 112.369 259.904 112.77C259.732 113.168 259.646 113.638 259.646 114.182C259.646 114.739 259.73 115.219 259.9 115.624C260.069 116.028 260.307 116.341 260.615 116.563C260.927 116.785 261.293 116.896 261.714 116.896C261.996 116.896 262.251 116.845 262.48 116.742C262.712 116.636 262.906 116.485 263.061 116.29C263.221 116.094 263.332 115.859 263.395 115.584H264.841C264.788 116.078 264.627 116.518 264.359 116.906C264.091 117.294 263.731 117.599 263.28 117.821C262.833 118.043 262.307 118.154 261.704 118.154ZM269.722 118.154C268.97 118.154 268.322 117.993 267.778 117.672C267.238 117.347 266.82 116.891 266.525 116.305C266.234 115.715 266.088 115.024 266.088 114.232C266.088 113.449 266.234 112.76 266.525 112.163C266.82 111.567 267.231 111.101 267.758 110.766C268.289 110.432 268.908 110.264 269.618 110.264C270.049 110.264 270.466 110.335 270.871 110.478C271.275 110.621 271.638 110.844 271.959 111.149C272.281 111.454 272.534 111.85 272.72 112.337C272.906 112.821 272.998 113.41 272.998 114.102V114.629H266.928V113.516H271.542C271.542 113.125 271.462 112.778 271.303 112.477C271.144 112.172 270.92 111.931 270.632 111.756C270.347 111.58 270.012 111.492 269.628 111.492C269.21 111.492 268.845 111.595 268.534 111.8C268.226 112.003 267.987 112.268 267.818 112.596C267.652 112.921 267.569 113.274 267.569 113.655V114.525C267.569 115.035 267.659 115.469 267.838 115.827C268.02 116.185 268.274 116.459 268.599 116.648C268.923 116.833 269.303 116.926 269.737 116.926C270.019 116.926 270.276 116.886 270.508 116.807C270.74 116.724 270.94 116.601 271.109 116.439C271.278 116.277 271.407 116.076 271.497 115.837L272.904 116.091C272.791 116.505 272.589 116.868 272.297 117.18C272.009 117.488 271.646 117.728 271.209 117.901C270.774 118.07 270.279 118.154 269.722 118.154ZM280.37 112.228L279.023 112.467C278.966 112.294 278.877 112.13 278.754 111.974C278.635 111.819 278.473 111.691 278.267 111.592C278.062 111.492 277.805 111.442 277.496 111.442C277.076 111.442 276.724 111.537 276.442 111.726C276.161 111.911 276.02 112.152 276.02 112.447C276.02 112.702 276.114 112.907 276.303 113.063C276.492 113.219 276.797 113.347 277.218 113.446L278.431 113.724C279.134 113.887 279.657 114.137 280.002 114.475C280.347 114.813 280.519 115.252 280.519 115.793C280.519 116.25 280.387 116.658 280.121 117.016C279.86 117.37 279.493 117.649 279.023 117.851C278.555 118.053 278.013 118.154 277.397 118.154C276.542 118.154 275.844 117.972 275.304 117.607C274.764 117.239 274.432 116.717 274.31 116.041L275.746 115.822C275.836 116.197 276.02 116.48 276.298 116.673C276.577 116.862 276.94 116.956 277.387 116.956C277.874 116.956 278.264 116.855 278.555 116.653C278.847 116.447 278.993 116.197 278.993 115.902C278.993 115.663 278.903 115.463 278.724 115.3C278.549 115.138 278.279 115.015 277.914 114.933L276.621 114.649C275.909 114.487 275.382 114.228 275.04 113.874C274.702 113.519 274.533 113.07 274.533 112.526C274.533 112.076 274.659 111.681 274.911 111.343C275.163 111.005 275.511 110.741 275.955 110.553C276.399 110.36 276.908 110.264 277.482 110.264C278.307 110.264 278.956 110.443 279.43 110.801C279.904 111.156 280.218 111.631 280.37 112.228Z" fill="white"/>
<path fill-rule="evenodd" clip-rule="evenodd" d="M89.875 78L95.8125 84.4262L102.014 86.9699L105.181 89.9153L116 92.3251L112.569 99.0191C110.326 99.3761 105.708 100.224 105.181 100.76L103.597 103.169L105.444 110.934L100.694 106.65L103.729 112.541L102.674 121.243L97.6597 114.014L97.5278 127L88.2917 118.164L86.9722 113.612L83.8056 117.628L80.2431 106.784L81.5625 101.831L78 103.036L82.2222 93.2623L78.9236 94.735L83.6736 87.5055L88.0278 85.0956L89.875 78ZM97.3958 88.041C98.5833 88.2195 101.011 88.6836 101.222 89.112L102.014 90.7186C100.958 90.9417 98.5569 90.7186 97.3958 88.041Z" fill="white"/>
<path d="M98.4514 84.9617L93.9653 78.4016L92.9097 80.5437L96.0764 84.0246L98.4514 84.9617Z" fill="white"/>
</g>
<defs>
<linearGradient id="paint0_linear_108_2" x1="180" y1="-158" x2="180" y2="446.806" gradientUnits="userSpaceOnUse">
<stop stop-color="#8233A8"/>
<stop offset="1" stop-color="#000113"/>
</linearGradient>
<clipPath id="clip0_108_2">
<rect width="360" height="800" rx="30" fill="white"/>
</clipPath>
</defs>
</svg>
