<svg width="375" height="812" viewBox="0 0 375 812" fill="none" xmlns="http://www.w3.org/2000/svg">
<g clip-path="url(#clip0_103_298)">
<rect width="375" height="812" rx="20" fill="#0E0E16"/>
<path fill-rule="evenodd" clip-rule="evenodd" d="M375 -34H-9V479.459L77.1607 465.129L108.855 445.551L101.793 424.367L109.867 394.497L88.0667 401.763L113.904 342.831L93.7185 351.711L122.785 308.117L149.43 293.586L160.733 250.8L197.067 289.55L235.015 304.888L254.393 322.648L320.6 337.18L299.607 377.544C285.882 379.697 257.622 384.81 254.393 388.039L244.704 402.57L254.767 444.256L288.6 465.2L375 479.6V-34ZM230.17 317.805C228.879 315.221 214.022 312.423 206.756 311.346C213.861 327.492 228.556 328.838 235.015 327.492L230.17 317.805ZM185.763 253.222L213.215 292.779L198.681 287.128L179.304 266.138L185.763 253.222Z" fill="url(#paint0_linear_103_298)"/>
<path d="M131.28 753C131.104 753 130.96 752.944 130.848 752.832C130.736 752.72 130.68 752.576 130.68 752.4V736.8C130.68 736.624 130.736 736.48 130.848 736.368C130.96 736.256 131.104 736.2 131.28 736.2H134.448C134.608 736.2 134.744 736.256 134.856 736.368C134.984 736.48 135.048 736.624 135.048 736.8V749.376H142.296C142.472 749.376 142.616 749.44 142.728 749.568C142.856 749.68 142.92 749.824 142.92 750V752.4C142.92 752.576 142.856 752.72 142.728 752.832C142.616 752.944 142.472 753 142.296 753H131.28ZM149.156 753.24C148.244 753.24 147.428 753.032 146.708 752.616C146.004 752.2 145.452 751.592 145.052 750.792C144.652 749.976 144.452 748.984 144.452 747.816V741.12C144.452 740.944 144.508 740.8 144.62 740.688C144.732 740.576 144.876 740.52 145.052 740.52H148.052C148.228 740.52 148.372 740.576 148.484 740.688C148.596 740.8 148.652 740.944 148.652 741.12V747.672C148.652 749.24 149.356 750.024 150.764 750.024C151.42 750.024 151.94 749.824 152.324 749.424C152.724 749.008 152.924 748.424 152.924 747.672V741.12C152.924 740.944 152.98 740.8 153.092 740.688C153.204 740.576 153.348 740.52 153.524 740.52H156.524C156.7 740.52 156.844 740.576 156.956 740.688C157.068 740.8 157.124 740.944 157.124 741.12V752.4C157.124 752.576 157.068 752.72 156.956 752.832C156.844 752.944 156.7 753 156.524 753H153.74C153.58 753 153.436 752.944 153.308 752.832C153.196 752.72 153.14 752.576 153.14 752.4V751.488C152.724 752.064 152.18 752.504 151.508 752.808C150.852 753.096 150.068 753.24 149.156 753.24ZM160.547 757.56C160.371 757.56 160.227 757.504 160.115 757.392C160.003 757.28 159.947 757.136 159.947 756.96V741.12C159.947 740.944 160.003 740.8 160.115 740.688C160.227 740.576 160.371 740.52 160.547 740.52H163.259C163.419 740.52 163.555 740.576 163.667 740.688C163.795 740.8 163.859 740.944 163.859 741.12V742.008C164.227 741.512 164.715 741.104 165.323 740.784C165.931 740.448 166.683 740.28 167.579 740.28C168.379 740.28 169.083 740.408 169.691 740.664C170.299 740.904 170.819 741.264 171.251 741.744C171.683 742.224 172.019 742.808 172.259 743.496C172.515 744.184 172.659 744.976 172.691 745.872C172.707 746.192 172.715 746.488 172.715 746.76C172.715 747.032 172.707 747.328 172.691 747.648C172.659 748.512 172.523 749.288 172.283 749.976C172.043 750.664 171.707 751.248 171.275 751.728C170.843 752.208 170.315 752.584 169.691 752.856C169.083 753.112 168.379 753.24 167.579 753.24C166.795 753.24 166.107 753.104 165.515 752.832C164.939 752.544 164.459 752.144 164.075 751.632V756.96C164.075 757.136 164.019 757.28 163.907 757.392C163.795 757.504 163.651 757.56 163.475 757.56H160.547ZM166.283 750.024C166.827 750.024 167.251 749.912 167.555 749.688C167.859 749.464 168.075 749.16 168.203 748.776C168.347 748.392 168.435 747.968 168.467 747.504C168.499 747.008 168.499 746.512 168.467 746.016C168.435 745.552 168.347 745.128 168.203 744.744C168.075 744.36 167.859 744.056 167.555 743.832C167.251 743.608 166.827 743.496 166.283 743.496C165.755 743.496 165.331 743.616 165.011 743.856C164.691 744.08 164.459 744.376 164.315 744.744C164.171 745.112 164.091 745.512 164.075 745.944C164.059 746.248 164.051 746.544 164.051 746.832C164.051 747.12 164.059 747.424 164.075 747.744C164.091 748.144 164.179 748.52 164.339 748.872C164.499 749.208 164.739 749.488 165.059 749.712C165.379 749.92 165.787 750.024 166.283 750.024ZM179.672 753.24C178.76 753.24 177.944 753.032 177.224 752.616C176.52 752.2 175.968 751.592 175.568 750.792C175.168 749.976 174.968 748.984 174.968 747.816V741.12C174.968 740.944 175.024 740.8 175.136 740.688C175.248 740.576 175.392 740.52 175.568 740.52H178.568C178.744 740.52 178.888 740.576 179 740.688C179.112 740.8 179.168 740.944 179.168 741.12V747.672C179.168 749.24 179.872 750.024 181.28 750.024C181.936 750.024 182.456 749.824 182.84 749.424C183.24 749.008 183.44 748.424 183.44 747.672V741.12C183.44 740.944 183.496 740.8 183.608 740.688C183.72 740.576 183.864 740.52 184.04 740.52H187.04C187.216 740.52 187.36 740.576 187.472 740.688C187.584 740.8 187.64 740.944 187.64 741.12V752.4C187.64 752.576 187.584 752.72 187.472 752.832C187.36 752.944 187.216 753 187.04 753H184.256C184.096 753 183.952 752.944 183.824 752.832C183.712 752.72 183.656 752.576 183.656 752.4V751.488C183.24 752.064 182.696 752.504 182.024 752.808C181.368 753.096 180.584 753.24 179.672 753.24ZM195.599 753.24C194.559 753.24 193.671 753.128 192.935 752.904C192.215 752.664 191.623 752.376 191.159 752.04C190.711 751.704 190.375 751.36 190.151 751.008C189.927 750.64 189.807 750.328 189.791 750.072C189.775 749.896 189.831 749.752 189.959 749.64C190.087 749.512 190.223 749.448 190.367 749.448H193.103C193.151 749.448 193.191 749.456 193.223 749.472C193.255 749.488 193.303 749.52 193.367 749.568C193.575 749.68 193.783 749.824 193.991 750C194.199 750.16 194.439 750.304 194.711 750.432C194.983 750.56 195.311 750.624 195.695 750.624C196.143 750.624 196.519 750.536 196.823 750.36C197.127 750.184 197.279 749.92 197.279 749.568C197.279 749.312 197.207 749.104 197.063 748.944C196.919 748.768 196.623 748.6 196.175 748.44C195.743 748.28 195.087 748.12 194.207 747.96C193.375 747.768 192.647 747.52 192.023 747.216C191.399 746.896 190.919 746.488 190.583 745.992C190.247 745.48 190.079 744.864 190.079 744.144C190.079 743.504 190.287 742.888 190.703 742.296C191.119 741.704 191.727 741.224 192.527 740.856C193.327 740.472 194.311 740.28 195.479 740.28C196.407 740.28 197.207 740.392 197.879 740.616C198.567 740.824 199.143 741.096 199.607 741.432C200.087 741.768 200.447 742.112 200.687 742.464C200.927 742.816 201.055 743.136 201.071 743.424C201.087 743.584 201.039 743.728 200.927 743.856C200.815 743.968 200.687 744.024 200.543 744.024H198.047C197.983 744.024 197.919 744.016 197.855 744C197.791 743.968 197.735 743.936 197.687 743.904C197.495 743.808 197.303 743.68 197.111 743.52C196.919 743.36 196.695 743.216 196.439 743.088C196.183 742.96 195.863 742.896 195.479 742.896C195.047 742.896 194.711 742.992 194.471 743.184C194.231 743.376 194.111 743.624 194.111 743.928C194.111 744.136 194.175 744.328 194.303 744.504C194.447 744.68 194.727 744.84 195.143 744.984C195.575 745.128 196.239 745.288 197.135 745.464C198.239 745.64 199.119 745.928 199.775 746.328C200.431 746.712 200.895 747.168 201.167 747.696C201.439 748.208 201.575 748.752 201.575 749.328C201.575 750.096 201.343 750.776 200.879 751.368C200.431 751.96 199.759 752.424 198.863 752.76C197.967 753.08 196.879 753.24 195.599 753.24ZM204.209 753C204.033 753 203.889 752.944 203.777 752.832C203.665 752.72 203.609 752.576 203.609 752.4V749.352C203.609 749.192 203.665 749.056 203.777 748.944C203.889 748.816 204.033 748.752 204.209 748.752H207.233C207.409 748.752 207.553 748.816 207.665 748.944C207.793 749.056 207.857 749.192 207.857 749.352V752.4C207.857 752.576 207.793 752.72 207.665 752.832C207.553 752.944 207.409 753 207.233 753H204.209ZM214.293 753.24C213.429 753.24 212.653 753.08 211.965 752.76C211.293 752.424 210.757 751.976 210.357 751.416C209.957 750.856 209.757 750.224 209.757 749.52C209.757 748.384 210.221 747.488 211.149 746.832C212.077 746.16 213.309 745.704 214.845 745.464L217.845 745.008V744.672C217.845 744.096 217.725 743.656 217.485 743.352C217.245 743.048 216.805 742.896 216.165 742.896C215.717 742.896 215.349 742.984 215.061 743.16C214.789 743.336 214.573 743.576 214.413 743.88C214.269 744.088 214.069 744.192 213.813 744.192H211.125C210.949 744.192 210.813 744.144 210.717 744.048C210.621 743.936 210.581 743.808 210.597 743.664C210.597 743.376 210.701 743.048 210.909 742.68C211.133 742.296 211.469 741.92 211.917 741.552C212.365 741.184 212.941 740.88 213.645 740.64C214.349 740.4 215.197 740.28 216.189 740.28C217.229 740.28 218.117 740.4 218.853 740.64C219.589 740.88 220.181 741.216 220.629 741.648C221.093 742.08 221.437 742.592 221.661 743.184C221.885 743.76 221.997 744.4 221.997 745.104V752.4C221.997 752.576 221.933 752.72 221.805 752.832C221.693 752.944 221.557 753 221.397 753H218.613C218.437 753 218.293 752.944 218.181 752.832C218.069 752.72 218.013 752.576 218.013 752.4V751.56C217.805 751.864 217.525 752.144 217.173 752.4C216.821 752.656 216.405 752.856 215.925 753C215.461 753.16 214.917 753.24 214.293 753.24ZM215.421 750.504C215.885 750.504 216.301 750.408 216.669 750.216C217.053 750.008 217.349 749.696 217.557 749.28C217.781 748.848 217.893 748.312 217.893 747.672V747.336L215.853 747.696C215.101 747.824 214.549 748.024 214.197 748.296C213.861 748.552 213.693 748.856 213.693 749.208C213.693 749.48 213.773 749.712 213.933 749.904C214.093 750.096 214.301 750.248 214.557 750.36C214.813 750.456 215.101 750.504 215.421 750.504ZM225.305 753C225.129 753 224.985 752.944 224.873 752.832C224.761 752.72 224.705 752.576 224.705 752.4V741.12C224.705 740.944 224.761 740.8 224.873 740.688C224.985 740.576 225.129 740.52 225.305 740.52H228.137C228.297 740.52 228.433 740.576 228.545 740.688C228.673 740.8 228.737 740.944 228.737 741.12V752.4C228.737 752.576 228.673 752.72 228.545 752.832C228.433 752.944 228.297 753 228.137 753H225.305ZM225.281 738.72C225.105 738.72 224.961 738.664 224.849 738.552C224.737 738.44 224.681 738.296 224.681 738.12V735.984C224.681 735.808 224.737 735.664 224.849 735.552C224.961 735.424 225.105 735.36 225.281 735.36H228.137C228.313 735.36 228.457 735.424 228.569 735.552C228.697 735.664 228.761 735.808 228.761 735.984V738.12C228.761 738.296 228.697 738.44 228.569 738.552C228.457 738.664 228.313 738.72 228.137 738.72H225.281Z" fill="white"/>
<path d="M114.672 761.493C114.619 761.022 114.4 760.658 114.016 760.399C113.631 760.137 113.147 760.006 112.564 760.006C112.146 760.006 111.785 760.073 111.48 760.205C111.175 760.335 110.938 760.513 110.769 760.742C110.603 760.968 110.521 761.224 110.521 761.513C110.521 761.755 110.577 761.964 110.69 762.139C110.806 762.315 110.956 762.462 111.142 762.582C111.331 762.698 111.533 762.795 111.749 762.875C111.964 762.951 112.171 763.014 112.37 763.064L113.364 763.322C113.689 763.402 114.022 763.51 114.364 763.646C114.705 763.781 115.022 763.96 115.313 764.183C115.605 764.405 115.84 764.68 116.019 765.008C116.201 765.336 116.293 765.729 116.293 766.186C116.293 766.763 116.143 767.275 115.845 767.722C115.55 768.17 115.121 768.523 114.558 768.781C113.997 769.04 113.32 769.169 112.524 769.169C111.762 769.169 111.102 769.048 110.545 768.806C109.989 768.564 109.553 768.221 109.238 767.777C108.923 767.33 108.749 766.799 108.716 766.186H110.257C110.287 766.554 110.406 766.861 110.615 767.106C110.827 767.348 111.097 767.528 111.425 767.648C111.757 767.764 112.12 767.822 112.514 767.822C112.948 767.822 113.335 767.754 113.673 767.618C114.014 767.479 114.282 767.286 114.478 767.041C114.674 766.793 114.771 766.503 114.771 766.171C114.771 765.87 114.685 765.623 114.513 765.43C114.344 765.238 114.113 765.079 113.822 764.953C113.533 764.827 113.207 764.716 112.842 764.62L111.639 764.292C110.824 764.07 110.178 763.743 109.7 763.312C109.226 762.882 108.989 762.312 108.989 761.602C108.989 761.016 109.148 760.504 109.467 760.066C109.785 759.629 110.216 759.289 110.759 759.047C111.303 758.802 111.916 758.679 112.599 758.679C113.288 758.679 113.896 758.8 114.423 759.042C114.954 759.284 115.371 759.617 115.676 760.041C115.981 760.462 116.14 760.946 116.153 761.493H114.672ZM119.496 764.466V769H118.009V758.818H119.476V762.607H119.57C119.749 762.196 120.023 761.869 120.39 761.627C120.758 761.385 121.239 761.264 121.832 761.264C122.356 761.264 122.813 761.372 123.204 761.587C123.599 761.803 123.904 762.124 124.119 762.552C124.338 762.976 124.447 763.506 124.447 764.143V769H122.961V764.322C122.961 763.762 122.817 763.327 122.528 763.019C122.24 762.708 121.839 762.552 121.325 762.552C120.974 762.552 120.659 762.626 120.381 762.776C120.105 762.925 119.888 763.143 119.729 763.432C119.573 763.717 119.496 764.062 119.496 764.466ZM126.431 769V761.364H127.917V769H126.431ZM127.182 760.185C126.923 760.185 126.701 760.099 126.515 759.927C126.333 759.751 126.242 759.542 126.242 759.3C126.242 759.055 126.333 758.846 126.515 758.674C126.701 758.498 126.923 758.411 127.182 758.411C127.44 758.411 127.661 758.498 127.843 758.674C128.028 758.846 128.121 759.055 128.121 759.3C128.121 759.542 128.028 759.751 127.843 759.927C127.661 760.099 127.44 760.185 127.182 760.185ZM133.208 769.154C132.456 769.154 131.808 768.993 131.265 768.672C130.724 768.347 130.307 767.891 130.012 767.305C129.72 766.715 129.574 766.024 129.574 765.232C129.574 764.449 129.72 763.76 130.012 763.163C130.307 762.567 130.718 762.101 131.245 761.766C131.775 761.432 132.395 761.264 133.104 761.264C133.535 761.264 133.953 761.335 134.357 761.478C134.761 761.621 135.124 761.844 135.446 762.149C135.767 762.454 136.021 762.85 136.206 763.337C136.392 763.821 136.485 764.41 136.485 765.102V765.629H130.414V764.516H135.028C135.028 764.125 134.949 763.778 134.789 763.477C134.63 763.172 134.407 762.931 134.118 762.756C133.833 762.58 133.498 762.492 133.114 762.492C132.696 762.492 132.332 762.595 132.02 762.8C131.712 763.003 131.473 763.268 131.304 763.596C131.139 763.921 131.056 764.274 131.056 764.655V765.525C131.056 766.035 131.145 766.469 131.324 766.827C131.507 767.185 131.76 767.459 132.085 767.648C132.41 767.833 132.789 767.926 133.223 767.926C133.505 767.926 133.762 767.886 133.994 767.807C134.226 767.724 134.426 767.601 134.596 767.439C134.765 767.277 134.894 767.076 134.983 766.837L136.39 767.091C136.278 767.505 136.075 767.868 135.784 768.18C135.495 768.488 135.132 768.728 134.695 768.901C134.261 769.07 133.765 769.154 133.208 769.154ZM139.621 758.818V769H138.134V758.818H139.621ZM144.479 769.149C143.863 769.149 143.312 768.992 142.828 768.677C142.348 768.359 141.97 767.906 141.695 767.32C141.423 766.73 141.287 766.022 141.287 765.197C141.287 764.371 141.425 763.665 141.7 763.079C141.978 762.492 142.359 762.043 142.843 761.732C143.327 761.42 143.876 761.264 144.489 761.264C144.963 761.264 145.344 761.344 145.632 761.503C145.924 761.659 146.15 761.841 146.309 762.05C146.471 762.259 146.597 762.442 146.686 762.602H146.776V758.818H148.262V769H146.811V767.812H146.686C146.597 767.974 146.468 768.16 146.299 768.369C146.133 768.577 145.904 768.76 145.613 768.915C145.321 769.071 144.943 769.149 144.479 769.149ZM144.807 767.881C145.235 767.881 145.596 767.769 145.891 767.543C146.189 767.315 146.415 766.998 146.567 766.594C146.723 766.189 146.801 765.719 146.801 765.182C146.801 764.652 146.725 764.187 146.572 763.79C146.42 763.392 146.196 763.082 145.901 762.86C145.606 762.638 145.241 762.527 144.807 762.527C144.36 762.527 143.987 762.643 143.689 762.875C143.39 763.107 143.165 763.424 143.012 763.825C142.863 764.226 142.789 764.678 142.789 765.182C142.789 765.692 142.865 766.151 143.017 766.559C143.17 766.967 143.395 767.29 143.694 767.528C143.995 767.764 144.366 767.881 144.807 767.881ZM150.384 769V761.364H151.871V769H150.384ZM151.135 760.185C150.876 760.185 150.654 760.099 150.469 759.927C150.286 759.751 150.195 759.542 150.195 759.3C150.195 759.055 150.286 758.846 150.469 758.674C150.654 758.498 150.876 758.411 151.135 758.411C151.393 758.411 151.614 758.498 151.796 758.674C151.982 758.846 152.074 759.055 152.074 759.3C152.074 759.542 151.982 759.751 151.796 759.927C151.614 760.099 151.393 760.185 151.135 760.185ZM155.357 764.466V769H153.87V761.364H155.297V762.607H155.392C155.567 762.202 155.842 761.877 156.217 761.632C156.595 761.387 157.07 761.264 157.644 761.264C158.164 761.264 158.62 761.374 159.011 761.592C159.402 761.808 159.705 762.129 159.921 762.557C160.136 762.984 160.244 763.513 160.244 764.143V769H158.757V764.322C158.757 763.768 158.613 763.336 158.325 763.024C158.037 762.709 157.641 762.552 157.137 762.552C156.792 762.552 156.485 762.626 156.217 762.776C155.952 762.925 155.741 763.143 155.586 763.432C155.433 763.717 155.357 764.062 155.357 764.466ZM165.439 772.023C164.833 772.023 164.311 771.943 163.873 771.784C163.439 771.625 163.084 771.415 162.809 771.153C162.534 770.891 162.329 770.604 162.193 770.293L163.471 769.766C163.56 769.911 163.679 770.066 163.828 770.228C163.981 770.394 164.186 770.535 164.445 770.651C164.707 770.767 165.043 770.825 165.454 770.825C166.018 770.825 166.483 770.687 166.851 770.412C167.219 770.14 167.403 769.706 167.403 769.109V767.608H167.309C167.219 767.77 167.09 767.951 166.921 768.15C166.755 768.349 166.526 768.521 166.235 768.667C165.943 768.813 165.564 768.886 165.096 768.886C164.493 768.886 163.949 768.745 163.466 768.463C162.985 768.178 162.604 767.759 162.322 767.205C162.044 766.648 161.904 765.964 161.904 765.152C161.904 764.34 162.042 763.644 162.317 763.064C162.596 762.484 162.977 762.04 163.461 761.732C163.944 761.42 164.493 761.264 165.106 761.264C165.58 761.264 165.963 761.344 166.255 761.503C166.546 761.659 166.773 761.841 166.936 762.05C167.101 762.259 167.229 762.442 167.319 762.602H167.428V761.364H168.885V769.169C168.885 769.825 168.732 770.364 168.427 770.785C168.122 771.206 167.71 771.517 167.189 771.719C166.672 771.922 166.089 772.023 165.439 772.023ZM165.424 767.653C165.852 767.653 166.213 767.553 166.508 767.354C166.806 767.152 167.032 766.864 167.184 766.489C167.34 766.112 167.418 765.659 167.418 765.132C167.418 764.618 167.342 764.166 167.189 763.775C167.037 763.384 166.813 763.079 166.518 762.86C166.223 762.638 165.859 762.527 165.424 762.527C164.977 762.527 164.604 762.643 164.306 762.875C164.007 763.104 163.782 763.415 163.63 763.81C163.48 764.204 163.406 764.645 163.406 765.132C163.406 765.633 163.482 766.072 163.635 766.45C163.787 766.827 164.012 767.122 164.311 767.335C164.612 767.547 164.984 767.653 165.424 767.653ZM175.523 771.864C175.301 771.864 175.099 771.845 174.916 771.809C174.734 771.776 174.598 771.739 174.509 771.7L174.867 770.482C175.138 770.554 175.38 770.586 175.593 770.576C175.805 770.566 175.992 770.487 176.154 770.337C176.32 770.188 176.466 769.945 176.592 769.607L176.776 769.099L173.982 761.364H175.573L177.507 767.29H177.586L179.52 761.364H181.116L177.969 770.019C177.823 770.417 177.637 770.753 177.412 771.028C177.187 771.307 176.918 771.516 176.607 771.655C176.295 771.794 175.934 771.864 175.523 771.864ZM185.47 769.154C184.754 769.154 184.129 768.99 183.596 768.662C183.062 768.334 182.648 767.875 182.353 767.285C182.058 766.695 181.91 766.005 181.91 765.217C181.91 764.424 182.058 763.732 182.353 763.138C182.648 762.545 183.062 762.085 183.596 761.756C184.129 761.428 184.754 761.264 185.47 761.264C186.186 761.264 186.81 761.428 187.344 761.756C187.878 762.085 188.292 762.545 188.587 763.138C188.882 763.732 189.029 764.424 189.029 765.217C189.029 766.005 188.882 766.695 188.587 767.285C188.292 767.875 187.878 768.334 187.344 768.662C186.81 768.99 186.186 769.154 185.47 769.154ZM185.475 767.906C185.939 767.906 186.323 767.784 186.628 767.538C186.933 767.293 187.158 766.967 187.304 766.559C187.453 766.151 187.528 765.702 187.528 765.212C187.528 764.724 187.453 764.277 187.304 763.869C187.158 763.458 186.933 763.129 186.628 762.88C186.323 762.631 185.939 762.507 185.475 762.507C185.007 762.507 184.62 762.631 184.311 762.88C184.007 763.129 183.779 763.458 183.63 763.869C183.484 764.277 183.412 764.724 183.412 765.212C183.412 765.702 183.484 766.151 183.63 766.559C183.779 766.967 184.007 767.293 184.311 767.538C184.62 767.784 185.007 767.906 185.475 767.906ZM195.526 765.833V761.364H197.018V769H195.556V767.678H195.476C195.301 768.085 195.019 768.425 194.631 768.697C194.247 768.965 193.768 769.099 193.194 769.099C192.704 769.099 192.27 768.992 191.892 768.776C191.517 768.558 191.222 768.234 191.007 767.807C190.795 767.379 190.689 766.851 190.689 766.221V761.364H192.175V766.042C192.175 766.562 192.319 766.977 192.608 767.285C192.896 767.593 193.271 767.747 193.731 767.747C194.01 767.747 194.287 767.678 194.562 767.538C194.84 767.399 195.07 767.189 195.253 766.907C195.438 766.625 195.529 766.267 195.526 765.833ZM199.015 769V761.364H200.452V762.577H200.531C200.67 762.166 200.916 761.843 201.267 761.607C201.622 761.369 202.023 761.249 202.47 761.249C202.563 761.249 202.672 761.253 202.798 761.259C202.928 761.266 203.029 761.274 203.102 761.284V762.706C203.042 762.689 202.936 762.671 202.783 762.651C202.631 762.628 202.478 762.616 202.326 762.616C201.975 762.616 201.661 762.691 201.386 762.84C201.115 762.986 200.899 763.19 200.74 763.452C200.581 763.71 200.501 764.005 200.501 764.337V769H199.015ZM208.212 769V758.818H214.526V760.141H209.749V763.243H214.074V764.56H209.749V769H208.212ZM216.296 769V761.364H217.783V769H216.296ZM217.047 760.185C216.788 760.185 216.566 760.099 216.381 759.927C216.198 759.751 216.107 759.542 216.107 759.3C216.107 759.055 216.198 758.846 216.381 758.674C216.566 758.498 216.788 758.411 217.047 758.411C217.305 758.411 217.526 758.498 217.708 758.674C217.894 758.846 217.987 759.055 217.987 759.3C217.987 759.542 217.894 759.751 217.708 759.927C217.526 760.099 217.305 760.185 217.047 760.185ZM221.269 764.466V769H219.782V761.364H221.209V762.607H221.304C221.479 762.202 221.755 761.877 222.129 761.632C222.507 761.387 222.983 761.264 223.556 761.264C224.076 761.264 224.532 761.374 224.923 761.592C225.314 761.808 225.617 762.129 225.833 762.557C226.048 762.984 226.156 763.513 226.156 764.143V769H224.67V764.322C224.67 763.768 224.525 763.336 224.237 763.024C223.949 762.709 223.553 762.552 223.049 762.552C222.704 762.552 222.398 762.626 222.129 762.776C221.864 762.925 221.653 763.143 221.498 763.432C221.345 763.717 221.269 764.062 221.269 764.466ZM230.372 769.169C229.888 769.169 229.451 769.08 229.059 768.901C228.668 768.718 228.358 768.455 228.13 768.11C227.904 767.765 227.792 767.343 227.792 766.842C227.792 766.411 227.875 766.057 228.04 765.778C228.206 765.5 228.43 765.28 228.711 765.117C228.993 764.955 229.308 764.832 229.656 764.749C230.004 764.666 230.359 764.603 230.72 764.56C231.177 764.507 231.549 764.464 231.834 764.431C232.119 764.395 232.326 764.337 232.455 764.257C232.584 764.178 232.649 764.048 232.649 763.869V763.835C232.649 763.4 232.526 763.064 232.281 762.825C232.039 762.587 231.678 762.467 231.197 762.467C230.697 762.467 230.302 762.578 230.014 762.8C229.729 763.019 229.532 763.263 229.422 763.531L228.025 763.213C228.191 762.749 228.433 762.375 228.751 762.089C229.073 761.801 229.442 761.592 229.86 761.463C230.278 761.33 230.717 761.264 231.177 761.264C231.482 761.264 231.805 761.301 232.147 761.374C232.492 761.443 232.813 761.572 233.111 761.761C233.413 761.95 233.66 762.22 233.852 762.572C234.044 762.92 234.14 763.372 234.14 763.929V769H232.689V767.956H232.629C232.533 768.148 232.389 768.337 232.197 768.523C232.004 768.708 231.757 768.862 231.456 768.985C231.154 769.108 230.793 769.169 230.372 769.169ZM230.695 767.976C231.106 767.976 231.457 767.895 231.749 767.732C232.044 767.57 232.268 767.358 232.42 767.096C232.576 766.831 232.654 766.547 232.654 766.246V765.261C232.601 765.314 232.498 765.364 232.346 765.411C232.197 765.454 232.026 765.492 231.834 765.525C231.641 765.555 231.454 765.583 231.272 765.609C231.09 765.633 230.937 765.652 230.814 765.669C230.526 765.705 230.263 765.767 230.024 765.853C229.789 765.939 229.6 766.063 229.457 766.226C229.318 766.385 229.248 766.597 229.248 766.862C229.248 767.23 229.384 767.509 229.656 767.697C229.928 767.883 230.274 767.976 230.695 767.976ZM237.607 764.466V769H236.12V761.364H237.547V762.607H237.642C237.817 762.202 238.092 761.877 238.467 761.632C238.845 761.387 239.32 761.264 239.894 761.264C240.414 761.264 240.87 761.374 241.261 761.592C241.652 761.808 241.955 762.129 242.171 762.557C242.386 762.984 242.494 763.513 242.494 764.143V769H241.007V764.322C241.007 763.768 240.863 763.336 240.575 763.024C240.287 762.709 239.891 762.552 239.387 762.552C239.042 762.552 238.735 762.626 238.467 762.776C238.202 762.925 237.991 763.143 237.836 763.432C237.683 763.717 237.607 764.062 237.607 764.466ZM247.704 769.154C246.965 769.154 246.329 768.987 245.795 768.652C245.265 768.314 244.857 767.848 244.572 767.255C244.287 766.662 244.145 765.982 244.145 765.217C244.145 764.441 244.29 763.757 244.582 763.163C244.874 762.567 245.285 762.101 245.815 761.766C246.345 761.432 246.97 761.264 247.689 761.264C248.269 761.264 248.786 761.372 249.24 761.587C249.694 761.799 250.061 762.098 250.339 762.482C250.621 762.867 250.788 763.316 250.841 763.83H249.395C249.315 763.472 249.133 763.163 248.848 762.905C248.566 762.646 248.188 762.517 247.714 762.517C247.3 762.517 246.937 762.626 246.625 762.845C246.317 763.061 246.077 763.369 245.904 763.77C245.732 764.168 245.646 764.638 245.646 765.182C245.646 765.739 245.73 766.219 245.9 766.624C246.069 767.028 246.307 767.341 246.615 767.563C246.927 767.785 247.293 767.896 247.714 767.896C247.996 767.896 248.251 767.845 248.48 767.742C248.712 767.636 248.906 767.485 249.061 767.29C249.221 767.094 249.332 766.859 249.395 766.584H250.841C250.788 767.078 250.627 767.518 250.359 767.906C250.091 768.294 249.731 768.599 249.28 768.821C248.833 769.043 248.307 769.154 247.704 769.154ZM255.722 769.154C254.97 769.154 254.322 768.993 253.778 768.672C253.238 768.347 252.82 767.891 252.525 767.305C252.234 766.715 252.088 766.024 252.088 765.232C252.088 764.449 252.234 763.76 252.525 763.163C252.82 762.567 253.231 762.101 253.758 761.766C254.289 761.432 254.908 761.264 255.618 761.264C256.049 761.264 256.466 761.335 256.871 761.478C257.275 761.621 257.638 761.844 257.959 762.149C258.281 762.454 258.534 762.85 258.72 763.337C258.906 763.821 258.998 764.41 258.998 765.102V765.629H252.928V764.516H257.542C257.542 764.125 257.462 763.778 257.303 763.477C257.144 763.172 256.92 762.931 256.632 762.756C256.347 762.58 256.012 762.492 255.628 762.492C255.21 762.492 254.845 762.595 254.534 762.8C254.226 763.003 253.987 763.268 253.818 763.596C253.652 763.921 253.569 764.274 253.569 764.655V765.525C253.569 766.035 253.659 766.469 253.838 766.827C254.02 767.185 254.274 767.459 254.599 767.648C254.923 767.833 255.303 767.926 255.737 767.926C256.019 767.926 256.276 767.886 256.508 767.807C256.74 767.724 256.94 767.601 257.109 767.439C257.278 767.277 257.407 767.076 257.497 766.837L258.904 767.091C258.791 767.505 258.589 767.868 258.297 768.18C258.009 768.488 257.646 768.728 257.209 768.901C256.774 769.07 256.279 769.154 255.722 769.154ZM266.37 763.228L265.023 763.467C264.966 763.294 264.877 763.13 264.754 762.974C264.635 762.819 264.473 762.691 264.267 762.592C264.062 762.492 263.805 762.442 263.496 762.442C263.076 762.442 262.724 762.537 262.442 762.726C262.161 762.911 262.02 763.152 262.02 763.447C262.02 763.702 262.114 763.907 262.303 764.063C262.492 764.219 262.797 764.347 263.218 764.446L264.431 764.724C265.134 764.887 265.657 765.137 266.002 765.475C266.347 765.813 266.519 766.252 266.519 766.793C266.519 767.25 266.387 767.658 266.121 768.016C265.86 768.37 265.493 768.649 265.023 768.851C264.555 769.053 264.013 769.154 263.397 769.154C262.542 769.154 261.844 768.972 261.304 768.607C260.764 768.239 260.432 767.717 260.31 767.041L261.746 766.822C261.836 767.197 262.02 767.48 262.298 767.673C262.577 767.862 262.94 767.956 263.387 767.956C263.874 767.956 264.264 767.855 264.555 767.653C264.847 767.447 264.993 767.197 264.993 766.902C264.993 766.663 264.903 766.463 264.724 766.3C264.549 766.138 264.279 766.015 263.914 765.933L262.621 765.649C261.909 765.487 261.382 765.228 261.04 764.874C260.702 764.519 260.533 764.07 260.533 763.526C260.533 763.076 260.659 762.681 260.911 762.343C261.163 762.005 261.511 761.741 261.955 761.553C262.399 761.36 262.908 761.264 263.482 761.264C264.307 761.264 264.956 761.443 265.43 761.801C265.904 762.156 266.218 762.631 266.37 763.228Z" fill="white"/>
<g filter="url(#filter0_d_103_298)">
<path fill-rule="evenodd" clip-rule="evenodd" d="M160.875 251L196.812 289.951L234.347 305.369L253.514 323.221L319 337.828L298.236 378.402C284.66 380.566 256.708 385.705 253.514 388.951L243.931 403.557L255.111 450.623L226.361 424.656L244.729 460.361L238.34 513.107L207.993 469.287L207.194 548L151.292 494.443L143.306 466.852L124.139 491.197L102.576 425.467L110.562 395.443L89 402.746L114.556 343.508L94.5903 352.434L123.34 308.615L149.694 294.008L160.875 251ZM206.396 311.861C213.583 312.943 228.278 315.756 229.556 318.352L234.347 328.09C227.958 329.443 213.424 328.09 206.396 311.861Z" fill="white" fill-opacity="0.78" shape-rendering="crispEdges"/>
<path d="M212.785 293.197L185.632 253.434L179.243 266.418L198.41 287.516L212.785 293.197Z" fill="white" fill-opacity="0.78" shape-rendering="crispEdges"/>
</g>
</g>
<defs>
<filter id="filter0_d_103_298" x="85" y="251" width="238" height="305" filterUnits="userSpaceOnUse" color-interpolation-filters="sRGB">
<feFlood flood-opacity="0" result="BackgroundImageFix"/>
<feColorMatrix in="SourceAlpha" type="matrix" values="0 0 0 0 0 0 0 0 0 0 0 0 0 0 0 0 0 0 127 0" result="hardAlpha"/>
<feOffset dy="4"/>
<feGaussianBlur stdDeviation="2"/>
<feComposite in2="hardAlpha" operator="out"/>
<feColorMatrix type="matrix" values="0 0 0 0 0.301961 0 0 0 0 0.121569 0 0 0 0 0.419608 0 0 0 1 0"/>
<feBlend mode="normal" in2="BackgroundImageFix" result="effect1_dropShadow_103_298"/>
<feBlend mode="normal" in="SourceGraphic" in2="effect1_dropShadow_103_298" result="shape"/>
</filter>
<linearGradient id="paint0_linear_103_298" x1="183" y1="-84.1333" x2="183" y2="560.993" gradientUnits="userSpaceOnUse">
<stop stop-color="#8233A8"/>
<stop offset="1" stop-color="#000113"/>
</linearGradient>
<clipPath id="clip0_103_298">
<rect width="375" height="812" rx="20" fill="white"/>
</clipPath>
</defs>
</svg>
