<svg width="360" height="371" viewBox="0 0 360 371" fill="none" xmlns="http://www.w3.org/2000/svg">
<path fill-rule="evenodd" clip-rule="evenodd" d="M360 -158H0V370.367L80.7756 356.934L110.489 338.579L103.868 318.719L111.438 290.716L91 297.527L115.222 242.279L96.2986 250.604L123.549 209.735L148.528 196.112L159.125 156L193.188 192.328L228.764 206.708L246.931 223.358L309 236.981L289.319 274.822C276.451 276.841 249.958 281.634 246.931 284.661L237.847 298.284L247.282 337.365L279 357L360 370.5V-158ZM224.222 218.817C223.011 216.395 209.083 213.771 202.271 212.762C208.932 227.899 222.708 229.16 228.764 227.899L224.222 218.817ZM182.59 158.27L208.326 195.355L194.701 190.057L176.535 170.38L182.59 158.27Z" fill="url(#paint0_linear_4_81)"/>
<defs>
<linearGradient id="paint0_linear_4_81" x1="180" y1="-158" x2="180" y2="446.806" gradientUnits="userSpaceOnUse">
<stop stop-color="#8233A8"/>
<stop offset="1" stop-color="#000113"/>
</linearGradient>
</defs>
</svg>
